<svg width="30" height="30" viewBox="0 0 30 30" fill="none" xmlns="http://www.w3.org/2000/svg">
<path d="M9.54483 2.27021e-07C7.01338 2.69134e-07 4.58562 1.12269 2.79562 3.1211C1.00561 5.11951 0 7.82993 0 10.6561C0 13.4823 1.00561 16.1927 2.79562 18.1911C4.58562 20.1895 7.01338 21.3122 9.54483 21.3122H11.0038C10.8744 20.3025 10.8744 19.2773 11.0038 18.2676H9.54483C7.73665 18.2676 6.00253 17.4657 4.72396 16.0383C3.44539 14.6108 2.72709 12.6748 2.72709 10.6561C2.72709 8.63741 3.44539 6.7014 4.72396 5.27396C6.00253 3.84653 7.73665 3.0446 9.54483 3.0446H20.4532C21.4643 3.04437 22.4628 3.29522 23.3763 3.77897C24.2899 4.26272 25.0956 4.96727 25.7351 5.84157C26.3747 6.71587 26.8321 7.73804 27.0741 8.83404C27.3161 9.93003 27.3368 11.0724 27.1346 12.1784C27.9379 13.0578 28.5961 14.0885 29.079 15.223C29.7692 13.5986 30.08 11.8057 29.9825 10.0111C29.885 8.21651 29.3824 6.47864 28.5215 4.95925C27.6606 3.43987 26.4693 2.18837 25.0586 1.32126C23.6479 0.454153 22.0636 -0.000370842 20.4532 2.27021e-07L9.54483 2.27021e-07ZM20.4532 15.223C19.3683 15.223 18.3278 15.7042 17.5607 16.5606C16.7935 17.4171 16.3626 18.5787 16.3626 19.7899C16.3626 21.0011 16.7935 22.1628 17.5607 23.0192C18.3278 23.8757 19.3683 24.3568 20.4532 24.3568C21.5381 24.3568 22.5786 23.8757 23.3457 23.0192C24.1129 22.1628 24.5438 21.0011 24.5438 19.7899C24.5438 18.5787 24.1129 17.4171 23.3457 16.5606C22.5786 15.7042 21.5381 15.223 20.4532 15.223ZM13.6355 19.7899C13.6357 18.6032 13.8845 17.4329 14.3621 16.3726C14.8396 15.3123 15.5325 14.3914 16.3856 13.6833C17.2387 12.9753 18.2283 12.4997 19.2753 12.2947C20.3223 12.0897 21.3978 12.1608 22.4158 12.5024C23.4338 12.8441 24.3661 13.4467 25.1384 14.2623C25.9106 15.0778 26.5013 16.0837 26.8634 17.1995C27.2254 18.3153 27.3487 19.5102 27.2234 20.6887C27.0982 21.8672 26.7278 22.9967 26.1419 23.9869L29.5985 27.8475L27.6705 30L24.2125 26.141C23.1849 26.8993 21.9924 27.3326 20.7619 27.3948C19.5313 27.4571 18.3087 27.146 17.2238 26.4946C16.139 25.8432 15.2325 24.8758 14.6006 23.6953C13.9688 22.5147 13.6353 21.1651 13.6355 19.7899Z" fill="white"/>
</svg>
